# xmcd
#
# Track frame offsets:
#	150
#	15649
#	33134
#	48084
#	56519
#	76757
#	89033
#	105968
#	125103
#	135840
#	148716
#	160578
#	172689
#	193004
#	205049
#
# Disc length: 3069 seconds
#
# Revision: 1
# Processed by: cddbd v1.5.2PL0 Copyright (c) Steve Scherf et al.
# Submitted via: audiograbber 1.83.01
#
DISCID=b10bfb0f
DTITLE=Various Artist - Line Dance Classics - CD3
DYEAR=2011
DGENRE=Country
TTITLE0=Smokie - Living Next Door To Alice
TTITLE1=Alan Jackson - It's Five O'Clock Somewhere
TTITLE2=Billy Ray Cyrus - Burn Down The Trailer Park
TTITLE3=Lorne Greene - Bonanza
TTITLE4=Brooks and Dunn - Only In America
TTITLE5=Hank Snow - I'm Movin' On
TTITLE6=Martina McBride - Wild Angels
TTITLE7=Kris Kristofferson - Me And Bobby Gee
TTITLE8=Hank Locklin - Please Help Me, I'm Falling
TTITLE9=Jim Reeves - Distant Drums
TTITLE10=Skeeter Davis - The End Of The World
TTITLE11=Guy Mitchell - Heartaches By The Number
TTITLE12=Guy Clark - Desperados Waiting For A Train
TTITLE13=Frankie Laine - High Noon (Do Not Forsake Me)
TTITLE14=Sara Evans - Born To Fly
EXTD=
EXTT0=
EXTT1=
EXTT2=
EXTT3=
EXTT4=
EXTT5=
EXTT6=
EXTT7=
EXTT8=
EXTT9=
EXTT10=
EXTT11=
EXTT12=
EXTT13=
EXTT14=
PLAYORDER=
